<svg width="22" height="28" viewBox="0 0 22 28" fill="none" xmlns="http://www.w3.org/2000/svg">
<g clip-path="url(#clip0_8_30)">
<path d="M19.4835 9.92066H17.5009V6.54993C17.5009 4.81278 16.8139 3.14678 15.5912 1.91843C14.3685 0.69008 12.7101 0 10.9809 0C9.25174 0 7.59337 0.69008 6.37065 1.91843C5.14793 3.14678 4.46101 4.81278 4.46101 6.54993V9.92066H2.47834C2.15274 9.92015 1.83024 9.98421 1.52933 10.1091C1.22841 10.2341 0.955006 10.4175 0.724771 10.6488C0.494536 10.8801 0.312002 11.1547 0.187632 11.457C0.0632618 11.7593 -0.000499142 12.0833 2.94229e-06 12.4104V25.5103C-0.000499142 25.8374 0.0632618 26.1613 0.187632 26.4636C0.312002 26.7659 0.494536 27.0406 0.724771 27.2719C0.955006 27.5032 1.22841 27.6866 1.52933 27.8115C1.83024 27.9365 2.15274 28.0005 2.47834 28H19.5217C19.8473 28.0005 20.1698 27.9365 20.4707 27.8115C20.7716 27.6866 21.045 27.5032 21.2752 27.2719C21.5055 27.0406 21.688 26.7659 21.8124 26.4636C21.9367 26.1613 22.0005 25.8374 22 25.5103V12.4104C21.9861 11.7478 21.7153 11.1169 21.2453 10.6519C20.7753 10.1869 20.1432 9.9245 19.4835 9.92066ZM5.60486 6.54993C5.60486 5.11755 6.17126 3.74383 7.17947 2.73097C8.18768 1.71812 9.55511 1.14911 10.9809 1.14911C12.4068 1.14911 13.7742 1.71812 14.7824 2.73097C15.7906 3.74383 16.357 5.11755 16.357 6.54993V9.92066H5.60486V6.54993ZM20.818 25.5103C20.8141 25.8646 20.6722 26.2033 20.4228 26.4538C20.1734 26.7044 19.8362 26.8469 19.4835 26.8509H2.47834C2.12564 26.8469 1.78851 26.7044 1.53909 26.4538C1.28968 26.2033 1.14781 25.8646 1.14385 25.5103V12.4104C1.14781 12.0561 1.28968 11.7174 1.53909 11.4668C1.78851 11.2163 2.12564 11.0737 2.47834 11.0698H4.46101V15.7811H5.60486V11.0698H16.357V15.7811H17.5009V11.0698H19.4835C19.8362 11.0737 20.1734 11.2163 20.4228 11.4668C20.6722 11.7174 20.8141 12.0561 20.818 12.4104V25.5103Z" fill="black"/>
</g>
<defs>
<clipPath id="clip0_8_30">
<rect width="22" height="28" fill="white"/>
</clipPath>
</defs>
</svg>
