<svg width="22" height="25" viewBox="0 0 22 25" fill="none" xmlns="http://www.w3.org/2000/svg">
<path d="M21.9895 24.13L16.3316 17.3074C18.2913 15.6802 19.5334 13.3671 19.7964 10.8555C20.0593 8.34386 19.3226 5.8297 17.7413 3.84263C16.16 1.85556 13.8577 0.550708 11.3192 0.202933C8.78077 -0.144842 6.20441 0.491612 4.13283 1.97823C2.06125 3.46484 0.656184 5.68556 0.213595 8.1726C-0.228994 10.6596 0.325451 13.2188 1.76014 15.3111C3.19482 17.4034 5.39775 18.8654 7.90487 19.3891C10.412 19.9129 13.0276 19.4575 15.2007 18.119L20.918 24.9966L21.9895 24.13ZM9.94764 18.2256C8.25631 18.2256 6.60297 17.7315 5.19669 16.8057C3.7904 15.88 2.69434 14.5642 2.0471 13.0247C1.39986 11.4852 1.23051 9.79121 1.56047 8.15691C1.89043 6.52262 2.70488 5.02142 3.90083 3.84316C5.09677 2.6649 6.6205 1.86249 8.27933 1.53741C9.93815 1.21232 11.6576 1.37917 13.2201 2.01684C14.7827 2.65451 16.1183 3.73437 17.0579 5.11986C17.9976 6.50535 18.4991 8.13424 18.4991 9.80056C18.4963 12.0342 17.5945 14.1755 15.9914 15.7549C14.3883 17.3343 12.2148 18.2229 9.94764 18.2256Z" fill="black"/>
</svg>
